<svg width="800" height="800" viewBox="0 0 800 800" fill="none" xmlns="http://www.w3.org/2000/svg">
<g clip-path="url(#clip0_375_166)">
<path d="M661.556 299.778C638.869 299.232 616.535 294.04 595.933 284.523C575.332 275.006 556.901 261.366 541.778 244.445C549.895 278.98 545.181 315.288 528.512 346.604C511.844 377.921 484.359 402.109 451.178 414.663C417.998 427.217 381.385 427.28 348.161 414.84C314.938 402.4 287.37 378.306 270.594 347.047C253.819 315.788 248.979 279.496 256.978 244.933C264.977 210.371 285.268 179.895 314.071 159.184C342.874 138.473 378.224 128.94 413.535 132.361C448.846 135.782 481.709 151.924 506 177.778C496.184 142.167 498.61 104.291 512.889 70.2227C473.102 51.0071 429.089 42.2023 384.972 44.6326C340.854 47.063 298.074 60.6489 260.639 84.1186C223.203 107.588 192.335 140.174 170.925 178.825C149.515 217.475 138.263 260.927 138.223 305.112C138.223 408.889 196.445 495.778 239.112 559.112L246.889 570.667C289.34 632.192 334.88 691.527 383.334 748.445V748.445C392.2 758.827 408.246 758.827 417.112 748.445V748.445C465.559 691.522 511.099 632.187 553.556 570.667L561.334 558.889C603.778 495.556 662 408.889 662 305.112C661.778 303.334 661.556 301.556 661.556 299.778Z" fill="#1E6EF4"/>
<path d="M400 359.333C445.778 359.333 482.889 322.223 482.889 276.445C482.889 230.666 445.778 193.556 400 193.556C354.222 193.556 317.111 230.666 317.111 276.445C317.111 322.223 354.222 359.333 400 359.333Z" fill="#1E6EF4"/>
<path d="M666.667 244.445C728.032 244.445 777.778 194.699 777.778 133.334C777.778 71.9688 728.032 22.2227 666.667 22.2227C605.302 22.2227 555.556 71.9688 555.556 133.334C555.556 194.699 605.302 244.445 666.667 244.445Z" fill="#1E6EF4"/>
</g>
<defs>
<clipPath id="clip0_375_166">
<rect width="800" height="800" fill="white"/>
</clipPath>
</defs>
</svg>
